<svg width="21" height="16" viewBox="0 0 21 16" fill="none" xmlns="http://www.w3.org/2000/svg">
<path d="M19.9493 5.51123C20.1056 5.39404 20.34 5.51123 20.34 5.70654V13.6753C20.34 14.73 19.4806 15.5503 18.465 15.5503H2.21497C1.16028 15.5503 0.339966 14.73 0.339966 13.6753V5.70654C0.339966 5.51123 0.535278 5.39404 0.691528 5.51123C1.58997 6.21436 2.72278 7.07373 6.70715 9.96436C7.52747 10.5503 8.93372 11.8394 10.34 11.8394C11.7072 11.8394 13.1525 10.5503 13.9337 9.96436C17.9181 7.07373 19.0509 6.21436 19.9493 5.51123ZM10.34 10.5503C9.40247 10.5894 8.1134 9.41748 7.44934 8.94873C2.25403 5.19873 1.8634 4.84717 0.691528 3.90967C0.457153 3.75342 0.339966 3.47998 0.339966 3.16748V2.42529C0.339966 1.40967 1.16028 0.550293 2.21497 0.550293H18.465C19.4806 0.550293 20.34 1.40967 20.34 2.42529V3.16748C20.34 3.47998 20.1837 3.75342 19.9493 3.90967C18.7775 4.84717 18.3868 5.19873 13.1915 8.94873C12.5275 9.41748 11.2384 10.5894 10.34 10.5503Z" fill="white"/>
</svg>
