<svg width="18" height="18" viewBox="0 0 18 18" fill="none" xmlns="http://www.w3.org/2000/svg">
<path d="M9.21002 4.55811C11.671 4.55811 13.7022 6.58936 13.7022 9.05029C13.7022 11.5503 11.671 13.5425 9.21002 13.5425C6.71002 13.5425 4.71783 11.5503 4.71783 9.05029C4.71783 6.58936 6.71002 4.55811 9.21002 4.55811ZM9.21002 11.98C10.8116 11.98 12.1006 10.6909 12.1006 9.05029C12.1006 7.44873 10.8116 6.15967 9.21002 6.15967C7.5694 6.15967 6.28033 7.44873 6.28033 9.05029C6.28033 10.6909 7.60846 11.98 9.21002 11.98ZM14.9131 4.40186C14.9131 4.98779 14.4444 5.45654 13.8585 5.45654C13.2725 5.45654 12.8038 4.98779 12.8038 4.40186C12.8038 3.81592 13.2725 3.34717 13.8585 3.34717C14.4444 3.34717 14.9131 3.81592 14.9131 4.40186ZM17.8819 5.45654C17.96 6.90186 17.96 11.2378 17.8819 12.6831C17.8038 14.0894 17.4913 15.3003 16.4756 16.355C15.46 17.3706 14.21 17.6831 12.8038 17.7612C11.3585 17.8394 7.02252 17.8394 5.57721 17.7612C4.17096 17.6831 2.96002 17.3706 1.90533 16.355C0.889709 15.3003 0.577209 14.0894 0.499084 12.6831C0.420959 11.2378 0.420959 6.90186 0.499084 5.45654C0.577209 4.05029 0.889709 2.80029 1.90533 1.78467C2.96002 0.769043 4.17096 0.456543 5.57721 0.378418C7.02252 0.300293 11.3585 0.300293 12.8038 0.378418C14.21 0.456543 15.46 0.769043 16.4756 1.78467C17.4913 2.80029 17.8038 4.05029 17.8819 5.45654ZM16.0069 14.2065C16.4756 13.0737 16.3585 10.3394 16.3585 9.05029C16.3585 7.80029 16.4756 5.06592 16.0069 3.89404C15.6944 3.15186 15.1085 2.52686 14.3663 2.25342C13.1944 1.78467 10.46 1.90186 9.21002 1.90186C7.92096 1.90186 5.18658 1.78467 4.05377 2.25342C3.27252 2.56592 2.68658 3.15186 2.37408 3.89404C1.90533 5.06592 2.02252 7.80029 2.02252 9.05029C2.02252 10.3394 1.90533 13.0737 2.37408 14.2065C2.68658 14.9878 3.27252 15.5737 4.05377 15.8862C5.18658 16.355 7.92096 16.2378 9.21002 16.2378C10.46 16.2378 13.1944 16.355 14.3663 15.8862C15.1085 15.5737 15.7335 14.9878 16.0069 14.2065Z" fill="white"/>
</svg>
