<svg width="19" height="18" viewBox="0 0 19 18" fill="none" xmlns="http://www.w3.org/2000/svg">
<path d="M17.21 0.300293C17.8741 0.300293 18.46 0.88623 18.46 1.58936V16.5503C18.46 17.2534 17.8741 17.8003 17.21 17.8003H2.17096C1.5069 17.8003 0.960022 17.2534 0.960022 16.5503V1.58936C0.960022 0.88623 1.5069 0.300293 2.17096 0.300293H17.21ZM6.23346 15.3003V6.97998H3.65533V15.3003H6.23346ZM4.9444 5.80811C5.76471 5.80811 6.42877 5.14404 6.42877 4.32373C6.42877 3.50342 5.76471 2.80029 4.9444 2.80029C4.08502 2.80029 3.42096 3.50342 3.42096 4.32373C3.42096 5.14404 4.08502 5.80811 4.9444 5.80811ZM15.96 15.3003V10.73C15.96 8.50342 15.4522 6.74561 12.835 6.74561C11.585 6.74561 10.7256 7.44873 10.3741 8.11279H10.335V6.97998H7.87408V15.3003H10.4522V11.1987C10.4522 10.105 10.6475 9.05029 12.0147 9.05029C13.3428 9.05029 13.3428 10.3003 13.3428 11.2378V15.3003H15.96Z" fill="white"/>
</svg>
