<svg width="28" height="37" viewBox="0 0 28 37" fill="none" xmlns="http://www.w3.org/2000/svg">
<path d="M12.2738 35.7769C2.00815 21.0112 0.180023 19.4644 0.180023 13.98C0.180023 6.52686 6.15659 0.47998 13.68 0.47998C21.1331 0.47998 27.18 6.52686 27.18 13.98C27.18 19.4644 25.2816 21.0112 15.016 35.7769C14.3831 36.7612 12.9066 36.7612 12.2738 35.7769ZM13.68 19.605C16.7738 19.605 19.305 17.144 19.305 13.98C19.305 10.8862 16.7738 8.35498 13.68 8.35498C10.516 8.35498 8.05502 10.8862 8.05502 13.98C8.05502 17.144 10.516 19.605 13.68 19.605Z" fill="#0054A6"/>
</svg>
