<svg width="21" height="22" viewBox="0 0 21 22" fill="none" xmlns="http://www.w3.org/2000/svg">
<path d="M19.5778 2.02686C20.0075 2.14404 20.32 2.49561 20.32 2.92529C20.32 12.9644 12.195 21.0503 2.19501 21.0503C1.72626 21.0503 1.37469 20.7769 1.25751 20.3472L0.320007 16.2847C0.241882 15.855 0.437195 15.3862 0.866882 15.1909L5.24188 13.3159C5.63251 13.1597 6.06219 13.2769 6.33563 13.5894L8.28876 15.9722C11.3356 14.5269 13.7966 12.0269 15.2028 9.05811L12.82 7.10498C12.5075 6.83154 12.3903 6.40186 12.5466 6.01123L14.4216 1.63623C14.6169 1.20654 15.0856 0.972168 15.5153 1.08936L19.5778 2.02686Z" fill="white"/>
</svg>
