<svg width="36" height="35" viewBox="0 0 36 35" fill="none" xmlns="http://www.w3.org/2000/svg">
<path d="M18.35 0.0424805C27.9828 0.0424805 35.7875 7.84717 35.7875 17.48C35.7875 27.1128 27.9828 34.9175 18.35 34.9175C8.71718 34.9175 0.912491 27.1128 0.912491 17.48C0.912491 7.84717 8.71718 0.0424805 18.35 0.0424805ZM18.35 31.5425C26.0844 31.5425 32.4125 25.2847 32.4125 17.48C32.4125 9.74561 26.0844 3.41748 18.35 3.41748C10.5453 3.41748 4.28749 9.74561 4.28749 17.48C4.28749 25.2847 10.5453 31.5425 18.35 31.5425ZM22.6391 24.23L16.6625 19.8706C16.4516 19.73 16.3812 19.4487 16.3812 19.2378V7.63623C16.3812 7.21436 16.7328 6.79248 17.225 6.79248H19.475C19.8969 6.79248 20.3187 7.21436 20.3187 7.63623V17.6206L24.9594 21.0659C25.3812 21.3472 25.4516 21.8394 25.1703 22.2612L23.8344 24.019C23.5531 24.4409 23.0609 24.5112 22.6391 24.23Z" fill="#0054A6"/>
</svg>
