<svg width="22" height="21" viewBox="0 0 22 21" fill="none" xmlns="http://www.w3.org/2000/svg">
<path d="M18.4448 3.05156C16.4807 1.08281 13.8651 0 11.0854 0C5.3479 0 0.67915 4.66875 0.67915 10.4062C0.67915 12.2391 1.15728 14.0297 2.06665 15.6094L0.590088 21L6.10728 19.5516C7.62603 20.3813 9.33696 20.8172 11.0807 20.8172H11.0854C16.8182 20.8172 21.5901 16.1484 21.5901 10.4109C21.5901 7.63125 20.4088 5.02031 18.4448 3.05156ZM11.0854 19.0641C9.52915 19.0641 8.00571 18.6469 6.67915 17.8594L6.36509 17.6719L3.09321 18.5297L3.96509 15.3375L3.75884 15.0094C2.89165 13.6313 2.43696 12.0422 2.43696 10.4062C2.43696 5.63906 6.31821 1.75781 11.0901 1.75781C13.401 1.75781 15.5713 2.65781 17.2026 4.29375C18.8338 5.92969 19.837 8.1 19.8323 10.4109C19.8323 15.1828 15.8526 19.0641 11.0854 19.0641ZM15.8292 12.5859C15.5713 12.4547 14.2917 11.8266 14.0526 11.7422C13.8135 11.6531 13.6401 11.6109 13.4667 11.8734C13.2932 12.1359 12.7963 12.7172 12.6417 12.8953C12.4917 13.0688 12.337 13.0922 12.0792 12.9609C10.551 12.1969 9.5479 11.5969 8.54009 9.86719C8.2729 9.40781 8.80727 9.44063 9.30415 8.44687C9.38853 8.27344 9.34634 8.12344 9.28071 7.99219C9.21509 7.86094 8.69478 6.58125 8.47915 6.06094C8.26821 5.55469 8.05259 5.625 7.89321 5.61563C7.74321 5.60625 7.56978 5.60625 7.39634 5.60625C7.2229 5.60625 6.94165 5.67188 6.70259 5.92969C6.46353 6.19219 5.79321 6.82031 5.79321 8.1C5.79321 9.37969 6.72603 10.6172 6.85259 10.7906C6.98384 10.9641 8.6854 13.5891 11.2963 14.7188C12.9463 15.4312 13.5932 15.4922 14.4182 15.3703C14.9198 15.2953 15.9557 14.7422 16.1713 14.1328C16.387 13.5234 16.387 13.0031 16.3213 12.8953C16.2604 12.7781 16.087 12.7125 15.8292 12.5859Z" fill="#0054A6"/>
</svg>
