<svg width="18" height="12" viewBox="0 0 18 12" fill="none" xmlns="http://www.w3.org/2000/svg">
<path d="M17.2362 1.90625C17.6112 3.21875 17.6112 6.03125 17.6112 6.03125C17.6112 6.03125 17.6112 8.8125 17.2362 10.1562C17.0487 10.9062 16.455 11.4688 15.7362 11.6562C14.3925 12 9.07999 12 9.07999 12C9.07999 12 3.73624 12 2.39249 11.6562C1.67374 11.4688 1.07999 10.9062 0.892487 10.1562C0.517487 8.8125 0.517487 6.03125 0.517487 6.03125C0.517487 6.03125 0.517487 3.21875 0.892487 1.90625C1.07999 1.15625 1.67374 0.5625 2.39249 0.375C3.73624 0 9.07999 0 9.07999 0C9.07999 0 14.3925 0 15.7362 0.375C16.455 0.5625 17.0487 1.15625 17.2362 1.90625ZM7.32999 8.5625L11.7675 6.03125L7.32999 3.5V8.5625Z" fill="white"/>
</svg>
